<?xml version="1.0" encoding="UTF-8" standalone="no"?>
<!-- Created with Inkscape (http://www.inkscape.org/) -->

<svg
   xmlns:dc="http://purl.org/dc/elements/1.1/"
   xmlns:cc="http://creativecommons.org/ns#"
   xmlns:rdf="http://www.w3.org/1999/02/22-rdf-syntax-ns#"
   xmlns:svg="http://www.w3.org/2000/svg"
   xmlns="http://www.w3.org/2000/svg"
   version="1.1"
   width="80"
   height="80"
   id="svg3809">
  <defs
     id="defs3811" />
  <metadata
     id="metadata3814">
    <rdf:RDF>
      <cc:Work
         rdf:about="">
        <dc:format>image/svg+xml</dc:format>
        <dc:type
           rdf:resource="http://purl.org/dc/dcmitype/StillImage" />
        <dc:title></dc:title>
      </cc:Work>
    </rdf:RDF>
  </metadata>
  <g
     transform="translate(-335,-492.36218)"
     id="layer1">
    <path
       d="m 74.15254,42.372883 a 29.025423,27.966103 0 1 1 -58.050846,0 29.025423,27.966103 0 1 1 58.050846,0 z"
       transform="matrix(1.2226738,0,0,1.2226738,319.47274,479.64279)"
       id="path2993"
       style="fill:#ffffff;fill-opacity:1;stroke:#000000;stroke-width:0;stroke-miterlimit:4;stroke-opacity:1;stroke-dasharray:none" />
    <g
       transform="matrix(0.9056843,0,0,0.9056843,330.07127,487.30212)"
       id="Your_Icon">
      <path
         d="m 49.607,5.587 c -24.391,0 -44.165,19.773 -44.165,44.166 0,24.39 19.774,44.165 44.165,44.165 24.392,0 44.166,-19.774 44.166,-44.165 C 93.773,25.36 73.999,5.587 49.607,5.587 z m 20.004,61.99 c -2.952,3.065 -5.139,4.248 -7.096,3.826 -2.313,-0.495 -3.205,-2.972 -3.993,-5.154 -0.823,-2.285 -1.446,-3.785 -2.56,-3.798 l -0.176,-0.002 c -2.541,-0.028 -3.453,-0.007 -4.141,0.615 -0.801,0.727 -1.657,2.48 -2.76,5.065 l -0.36,1.187 c -0.086,0.283 -0.24,0.527 -0.438,0.718 -0.021,0.054 -0.043,0.105 -0.064,0.158 -0.746,1.801 -1.848,2.927 -3.271,3.344 -2.633,0.771 -5.423,-1.164 -7.883,-2.872 -1.093,-0.758 -3.119,-2.18 -3.732,-2.054 0.014,0.006 -0.643,0.628 -0.641,4.24 0,0.928 -0.753,1.681 -1.682,1.681 -0.929,0 -1.681,-0.753 -1.681,-1.681 -10e-4,-2.765 0.281,-6.083 2.474,-7.231 2.218,-1.157 4.628,0.513 7.179,2.284 1.657,1.151 3.928,2.729 5.018,2.407 0.5,-0.146 0.881,-0.845 1.113,-1.404 0.28,-0.68 0.545,-1.312 0.799,-1.902 l 5.112,-16.812 c -4.473,-0.065 -7.458,0.806 -8.432,2.413 -0.996,1.64 0.227,3.912 0.238,3.936 0.444,0.812 0.153,1.833 -0.656,2.282 -0.81,0.448 -1.824,0.165 -2.277,-0.642 -0.091,-0.16 -2.188,-3.968 -0.196,-7.292 1.688,-2.818 5.653,-4.182 11.783,-4.051 0.188,0.003 0.374,0.008 0.557,0.011 l 1.208,-3.977 C 47.187,42.28 42.604,37.214 42.604,31.048 c 0,-6.563 5.194,-11.883 11.602,-11.883 6.406,0 11.6,5.32 11.6,11.883 0,5.711 -3.934,10.476 -9.175,11.619 l -1.293,4.25 c 4.132,0.071 5.804,0.07 6.474,0.056 l 0.008,-0.137 c 0.557,-0.004 3.439,-0.265 3.439,-4.944 0,-0.928 0.754,-1.681 1.682,-1.681 0.929,0 1.681,0.753 1.681,1.681 0,2.763 -0.767,4.915 -2.279,6.399 -0.9,0.884 -1.897,1.359 -2.733,1.613 -0.602,0.444 -1.692,0.438 -3.223,0.437 -1.376,-0.004 -3.409,-0.032 -6.063,-0.082 l -2.783,9.15 c 1.108,-0.297 2.47,-0.343 4.286,-0.322 L 56,59.09 c 3.532,0.04 4.776,3.495 5.687,6.02 0.366,1.014 1.046,2.901 1.533,3.006 0.041,0.013 1.033,0.179 3.97,-2.869 0.646,-0.671 1.711,-0.688 2.377,-0.045 0.667,0.642 0.688,1.707 0.044,2.375 z"
         id="path6"
         style="fill:#138800;fill-opacity:1" />
    </g>
  </g>
</svg>
